<?xml version="1.0" standalone="no"?>
<!DOCTYPE svg PUBLIC "-//W3C//DTD SVG 20010904//EN"
 "http://www.w3.org/TR/2001/REC-SVG-20010904/DTD/svg10.dtd">
<svg version="1.0" xmlns="http://www.w3.org/2000/svg"
 width="800.000000pt" height="800.000000pt" viewBox="0 0 800.000000 800.000000"
 preserveAspectRatio="xMidYMid meet">
<metadata>
Created by potrace 1.14, written by Peter Selinger 2001-2017
</metadata>
<g transform="translate(0.000000,800.000000) scale(0.100000,-0.100000)"
fill="#000000" stroke="none">
<path d="M3809 6936 c-2 -2 -40 -6 -84 -10 -44 -4 -98 -9 -120 -12 -68 -8
-332 -64 -375 -79 -22 -8 -44 -14 -48 -15 -12 0 -116 -30 -137 -39 -11 -5 -54
-21 -95 -36 -363 -135 -731 -374 -1020 -664 -136 -136 -164 -168 -251 -281
-239 -308 -414 -658 -514 -1025 -30 -111 -28 -101 -60 -263 -2 -13 -9 -58 -14
-100 -6 -42 -13 -95 -17 -117 -10 -68 -12 -476 -3 -565 40 -398 142 -747 318
-1086 297 -573 763 -1024 1346 -1305 186 -89 463 -187 609 -215 11 -2 32 -6
46 -9 64 -15 172 -33 235 -40 28 -3 84 -10 125 -15 76 -8 504 -6 550 3 14 3
50 8 80 11 30 4 66 8 80 11 259 43 424 90 680 192 104 41 306 146 434 226 246
152 541 416 726 647 362 453 585 1004 637 1570 10 104 9 483 0 565 -13 104
-23 175 -32 225 -3 14 -7 41 -10 60 -8 45 -63 258 -75 290 -6 14 -12 34 -14
45 -22 107 -191 472 -297 640 -221 353 -514 657 -864 896 -44 30 -87 58 -95
62 -8 4 -42 23 -75 43 -101 59 -265 138 -385 186 -154 62 -414 138 -525 154
-16 3 -52 9 -80 14 -27 5 -72 12 -100 15 -27 3 -66 8 -85 11 -39 6 -485 15
-491 10z"/>
</g>
</svg>
