<?xml version="1.0" encoding="UTF-8"?>
<svg id="Lager_2" xmlns="http://www.w3.org/2000/svg" viewBox="0 0 415.92 503.66">
  <defs>
    <style>
      .cls-1 {
        fill: none;
      }

      .cls-1, .cls-2 {
        stroke: #5c50e2;
        stroke-miterlimit: 10;
        stroke-width: 5px;
      }

      .cls-2 {
        fill: #5c50e2;
      }
    </style>
  </defs>
  <g id="Lager_1-2" data-name="Lager_1">
    <path class="cls-2" d="M101.83,245.74c.09-1.42.27-2.85.27-4.27.01-53.92.05-107.84-.01-161.76-.02-15.68,5.2-28.98,16.89-39.62,24.12-21.96,64.35-14.06,78.19,15.44,3.57,7.61,4.71,15.75,4.7,24.13-.06,31.89-.02,63.79-.02,95.68,0,.9.04,1.8,0,2.69-.13,2.34.67,2.99,3.04,2.19,3.38-1.13,6.84-2.3,10.35-2.72,13.54-1.62,25.67,1.65,35.64,11.35,1.48,1.44,2.67,3.24,3.72,5.03,1.28,2.19,2.69,2.22,4.63.94,6.59-4.33,13.87-5.88,21.65-5.05,14.99,1.61,26.6,8.49,33.34,22.31,1.54,3.15,2.89,3.87,6.47,3.27,20.22-3.4,36.54,3.77,49.32,19.41,7.71,9.43,12.04,20.42,14.67,32.27,4.71,21.17,4.78,42.45,2.79,63.9-1.98,21.29-6.37,42.11-12.41,62.55-7.24,24.47-16.61,48.09-29.84,70.04-7.55,12.52-16.37,23.98-27.74,33.35-3.59,2.95-7.5,4.29-12.07,4.29-54.42-.02-108.84-.03-163.27.02-5.92,0-10.3-2.26-14.12-6.85-32.55-39.15-58.88-82.26-82-127.47-13.13-25.68-25.09-51.89-36.17-78.5-3.87-9.28-6.63-18.91-7.25-29.11-.79-12.82,3.37-23.68,12.14-32.85,9.39-9.82,20.75-16.19,34.31-17.71,15.76-1.76,28.07,5.31,37.9,16.9,4.73,5.58,8.45,12,12.61,18.05.49.71.91,1.46,1.36,2.19l.92-.08ZM127.11,188.76c0,36.57.03,73.15-.05,109.72,0,2.73-.23,5.69-1.28,8.15-1.96,4.64-5.7,7.31-10.99,7.28-5.58-.02-9.4-2.79-11.82-7.65-5.81-11.65-11.47-23.37-17.42-34.95-4.58-8.92-8.74-18.2-14.47-26.35-8.19-11.63-17.36-14.53-29.1-8.79-7.89,3.86-14.3,9.56-14.3,19.25,0,4.7.78,9.59,2.27,14.05,2.79,8.37,6.17,16.56,9.62,24.69,15.8,37.18,33.93,73.21,54.55,107.96,14.69,24.75,30.6,48.66,48.95,70.9,1.86,2.26,3.8,3.04,6.62,3.04,49.83-.06,99.66-.06,149.49,0,2.59,0,4.53-.75,6.37-2.55,11.75-11.52,20.23-25.31,27.37-39.93,13.76-28.17,22.47-57.99,27.51-88.85,3.48-21.31,4.73-42.78,1.52-64.28-1.46-9.79-4.14-19.25-9.27-27.85-8.69-14.57-26.43-16.32-36.97-9.58-8.21,5.26-20.19,1.73-20.58-10.87-.06-2.07-.15-4.25-.81-6.18-2.38-6.91-8.03-9.77-14.7-11.08-6.16-1.2-10.98.65-14,6.43-1.06,2.02-2.18,4.03-3.45,5.91-5.61,8.27-17.1,7.71-21.38-1.29-1.39-2.93-1.36-6.54-1.96-9.84-1.8-9.85-12.44-16.32-22.16-13.51-7.03,2.03-12.74,5.65-16.66,12.13-4.03,6.67-13.04,7.91-18.65,2.96-3.58-3.16-4.56-7.27-4.56-11.84.03-41.46.02-82.91.01-124.37,0-1.99,0-3.99-.1-5.98-.55-10.22-6.87-18.79-17-21.88-9.4-2.87-19.58-.76-26.63,7.39-4.56,5.27-5.97,11.53-5.96,18.3.02,36.47.01,72.95,0,109.42Z"/>
    <path class="cls-2" d="M369.9,83.51c-1.25,0-2.51,0-3.76,0-37.76,0-75.52-.04-113.29.04-5.15.01-9.16-1.78-11.81-6.14-4.79-7.89.51-17.85,9.93-18.77,1.48-.15,2.99-.1,4.48-.1,36.77,0,73.53,0,110.3-.01,1.35,0,2.7-.14,4.8-.25-1.18-1.32-1.85-2.13-2.58-2.86-10.27-10.29-20.53-20.6-30.84-30.84-4.1-4.08-5.39-8.95-3.41-14.22,3.17-8.45,13.74-10.49,20.42-4.03,7.93,7.68,15.67,15.56,23.48,23.37,10.41,10.41,20.59,21.06,31.31,31.15,5.97,5.63,5.97,14.74.05,20.52-18.04,17.6-35.72,35.58-53.56,53.38-5.09,5.08-10.83,6.28-16.24,3.52-6.89-3.52-8.52-13.41-2.94-19.47,4.65-5.05,9.65-9.78,14.5-14.64,5.77-5.78,11.56-11.54,17.32-17.32.75-.75,1.42-1.59,2.13-2.39-.1-.31-.19-.61-.29-.92Z"/>
    <path class="cls-1" d="M127.11,188.76c0-36.47.01-72.95,0-109.42,0-6.77,1.41-13.03,5.96-18.3,7.06-8.16,17.23-10.26,26.63-7.39,10.12,3.09,16.45,11.66,17,21.88.11,1.99.1,3.98.1,5.98,0,41.46.02,82.91-.01,124.37,0,4.57.97,8.68,4.56,11.84,5.61,4.94,14.62,3.7,18.65-2.96,3.92-6.47,9.63-10.1,16.66-12.13,9.72-2.81,20.36,3.66,22.16,13.51.6,3.3.57,6.91,1.96,9.84,4.28,9,15.78,9.56,21.38,1.29,1.28-1.89,2.4-3.89,3.45-5.91,3.02-5.78,7.84-7.63,14-6.43,6.67,1.3,12.31,4.16,14.7,11.08.66,1.93.75,4.11.81,6.18.39,12.6,12.36,16.12,20.58,10.87,10.54-6.74,28.28-5,36.97,9.58,5.12,8.6,7.8,18.06,9.27,27.85,3.21,21.5,1.97,42.97-1.52,64.28-5.04,30.86-13.75,60.68-27.51,88.85-7.14,14.62-15.62,28.41-27.37,39.93-1.84,1.8-3.78,2.56-6.37,2.55-49.83-.06-99.66-.06-149.49,0-2.82,0-4.76-.78-6.62-3.04-18.35-22.24-34.26-46.15-48.95-70.9-20.62-34.75-38.75-70.77-54.55-107.96-3.46-8.13-6.83-16.32-9.62-24.69-1.49-4.45-2.27-9.35-2.27-14.05,0-9.69,6.41-15.39,14.3-19.25,11.74-5.74,20.91-2.84,29.1,8.79,5.73,8.14,9.89,17.43,14.47,26.35,5.95,11.58,11.61,23.3,17.42,34.95,2.42,4.86,6.25,7.62,11.82,7.65,5.29.02,9.02-2.64,10.99-7.28,1.04-2.46,1.27-5.42,1.28-8.15.08-36.57.05-73.15.05-109.72Z"/>
  </g>
</svg>