<svg width="83" height="18" viewBox="0 0 83 18" fill="none" xmlns="http://www.w3.org/2000/svg">
<path d="M8.55409 2.758C8.86302 1.85723 10.137 1.85723 10.4459 2.758L11.4012 5.54327C11.5398 5.94741 11.9198 6.21885 12.3471 6.21885H15.3185C16.3002 6.21885 16.6941 7.48594 15.8854 8.04258L13.5762 9.63202C13.2066 9.8864 13.0517 10.3558 13.1973 10.7802L14.101 13.4151C14.4137 14.327 13.3822 15.1098 12.5881 14.5632L10.067 12.8279C9.72553 12.5929 9.27447 12.5929 8.93302 12.8279L6.41191 14.5632C5.61781 15.1098 4.58627 14.327 4.89902 13.4151L5.80272 10.7802C5.94827 10.3558 5.79335 9.8864 5.42378 9.63202L3.11457 8.04258C2.30586 7.48594 2.69978 6.21885 3.68155 6.21885H6.65291C7.08016 6.21885 7.46021 5.94741 7.59882 5.54327L8.55409 2.758Z" fill="#FF9900"/>
<path d="M24.5541 2.758C24.863 1.85723 26.137 1.85723 26.4459 2.758L27.4012 5.54327C27.5398 5.94741 27.9198 6.21885 28.3471 6.21885H31.3185C32.3002 6.21885 32.6941 7.48594 31.8854 8.04258L29.5762 9.63202C29.2066 9.8864 29.0517 10.3558 29.1973 10.7802L30.101 13.4151C30.4137 14.327 29.3822 15.1098 28.5881 14.5632L26.067 12.8279C25.7255 12.5929 25.2745 12.5929 24.933 12.8279L22.4119 14.5632C21.6178 15.1098 20.5863 14.327 20.899 13.4151L21.8027 10.7802C21.9483 10.3558 21.7934 9.8864 21.4238 9.63202L19.1146 8.04258C18.3059 7.48594 18.6998 6.21885 19.6815 6.21885H22.6529C23.0802 6.21885 23.4602 5.94741 23.5988 5.54327L24.5541 2.758Z" fill="#FF9900"/>
<path d="M41.0594 2.60533C41.3773 1.72476 42.6227 1.72476 42.9406 2.60533L44.0067 5.55842C44.1498 5.95473 44.5259 6.21885 44.9473 6.21885H48.154C49.148 6.21885 49.5332 7.5118 48.7013 8.0558L46.2945 9.62955C45.9066 9.88319 45.7438 10.3701 45.9012 10.8061L46.8621 13.4675C47.1881 14.3706 46.1778 15.1695 45.3742 14.6441L42.5473 12.7956C42.2148 12.5782 41.7852 12.5782 41.4527 12.7956L38.6258 14.6441C37.8222 15.1695 36.8119 14.3706 37.1379 13.4675L38.0988 10.8061C38.2562 10.3701 38.0934 9.88319 37.7055 9.62955L35.2987 8.0558C34.4668 7.5118 34.852 6.21885 35.846 6.21885H39.0527C39.4741 6.21885 39.8502 5.95473 39.9933 5.55842L41.0594 2.60533Z" fill="#FF9900"/>
<path d="M58.0594 2.60533C58.3773 1.72476 59.6227 1.72476 59.9406 2.60533L61.0067 5.55842C61.1498 5.95473 61.5259 6.21885 61.9473 6.21885H65.154C66.148 6.21885 66.5332 7.5118 65.7013 8.0558L63.2945 9.62955C62.9066 9.88319 62.7438 10.3701 62.9012 10.8061L63.8621 13.4675C64.1881 14.3706 63.1778 15.1695 62.3742 14.6441L59.5473 12.7956C59.2148 12.5782 58.7852 12.5782 58.4527 12.7956L55.6258 14.6441C54.8222 15.1695 53.8119 14.3706 54.1379 13.4675L55.0988 10.8061C55.2562 10.3701 55.0934 9.88319 54.7055 9.62955L52.2987 8.0558C51.4668 7.5118 51.852 6.21885 52.846 6.21885H56.0527C56.4741 6.21885 56.8502 5.95473 56.9933 5.55842L58.0594 2.60533Z" fill="#D1D4D6"/>
<path d="M73.544 3.11534C73.8331 2.17316 75.1669 2.17316 75.456 3.11534L76.1915 5.51221C76.3204 5.93217 76.7082 6.21885 77.1475 6.21885H79.644C80.5988 6.21885 81.0105 7.42926 80.2537 8.01145L78.1375 9.6394C77.8069 9.89374 77.6689 10.3266 77.7913 10.7254L78.5761 13.2829C78.8619 14.2144 77.7826 14.963 77.0104 14.3689L75.1097 12.9068C74.7503 12.6302 74.2497 12.6302 73.8903 12.9068L71.9896 14.3689C71.2174 14.963 70.1381 14.2144 70.4239 13.2829L71.2087 10.7254C71.3311 10.3266 71.1931 9.89374 70.8625 9.6394L68.7463 8.01145C67.9895 7.42926 68.4012 6.21885 69.356 6.21885H71.8525C72.2918 6.21885 72.6796 5.93217 72.8085 5.51221L73.544 3.11534Z" fill="#D1D4D6"/>
</svg>
